# xmcd
#
# Track frame offsets:
#	150
#	15250
#	30539
#	46149
#	64715
#	81426
#	96645
#	110985
#	130440
#	146373
#	163275
#	183818
#
# Disc length: 2652 seconds
#
# Revision: 1
# Processed by: cddbd v1.5.1PL2 Copyright (c) Steve Scherf et al.
# Submitted via: audiograbber 1.83.01
#
DISCID=a40a5a0c
DTITLE=DULE and KOKI - Via Makedonija
DYEAR=2004
DGENRE=Pop-Folk
TTITLE0=Tajno potajno
TTITLE1=Marama
TTITLE2=Kao ruza
TTITLE3=Nadjite mi nju
TTITLE4=Gradove i kule
TTITLE5=Pevaj mi 
TTITLE6=Sa zvezdama sam ja na ti
TTITLE7=Ko zna zasto je to dobro
TTITLE8=Neki momci kasno shvate
TTITLE9=Via Makedonija
TTITLE10=Koliko treba da se plati
TTITLE11=Violina i gitara
EXTD=
EXTT0=
EXTT1=
EXTT2=
EXTT3=
EXTT4=
EXTT5=
EXTT6=
EXTT7=
EXTT8=
EXTT9=
EXTT10=
EXTT11=
PLAYORDER=
